<svg id="Calque_1" data-name="Calque 1" xmlns="http://www.w3.org/2000/svg" viewBox="0 0 347.46 344.64"><defs><style>.cls-1{fill:#fff;}</style></defs><title>lion</title><path class="cls-1" d="M239,225.61l-.3.42c-3.64-1.6-7.44-2.94-10.86-4.93a7.56,7.56,0,0,1-3.33-4.7c-.87-5.47.85-11.59,7-14.83,4.33-2.29,8.07-5.78,11.83-9,1.31-1.12,2-3,2.72-4.72.19-.46-.7-1.95-.93-1.92-3.33.53-4.94-1.62-6.68-3.85-1.47-1.9-2.61-1.82-4.51-.33-1.51,1.17-3,2.63-4.74,3.22-7.09,2.41-13.9,2.34-19.8-3.2-1.76-1.65-2.85-1.51-4.46.37a16.22,16.22,0,0,1-1.76,2.28,5.69,5.69,0,0,1-2.86,1.35c-2.89.18-3.87,1.52-2,3.84a36.32,36.32,0,0,0,6.88,6.63c2.57,1.89,5.67,3,8.37,4.77,4.79,3,6.4,7.72,5.95,13.13a11.06,11.06,0,0,1-7.49,10,40.93,40.93,0,0,0-7.41,4c-3.29,2.17-6.36,4.67-9.61,6.9-2.76,1.88-4.28,1.47-5.85-1.44-1-1.86-1.82-3.83-2.76-5.84-4.5,5.35-3.88,14.62,1,17.81a13.35,13.35,0,0,1,1.92-3.3,4,4,0,0,1,3.07-1.12c4.84,1.19,5.42,1,8-3.18,2.35-3.83,5.56-6,10.34-5.8,3.7.19,7.42-.23,11.12-.12,3.35.1,6.69.63,10,.81a7.3,7.3,0,0,0,3.83-.56,6,6,0,0,1,6.38-.18,34,34,0,0,1,11.86,10.44c.44.64,1.51,1.63,1.77,1.5a6,6,0,0,0,2.36-2.22c.39-.74.16-1.82.2-2.73-3.83-.35-4.75-.93-5.69-3.55-1.61-4.51,1.3-6.83,4.69-8.9a63.29,63.29,0,0,1-7.77-3.25c-1.29-.73-3.06-2.64-2.83-3.57.52-2.1,2.81-.9,4.38-1.08,1.27-.14,2.53-.43,3.79-.66l-.11-.77c-3.13-1.27-6.94-.93-9.8-3.94,2.16-.36,3.89-.66,5.63-.92a5.87,5.87,0,0,0,4.7-3c-4.7.44-8.57-.5-11.66-4.29,4.28-1,8.6-1.73,9.12-7.12-3.53,4.47-8.94,4.16-14.08,5.3l2.68,5.6-5.61-.29,3.77,4.88-5.35-.28-.16.61,7.18,5.7-4.79,1.67C237.31,222.8,238.16,224.21,239,225.61Zm23-38.36c3.17,6,3.43,12.14,3.41,18.34s0,12.34,0,18.51l.51.31,5.92-6.62,1,.76c-1.91,2.87-3.82,5.74-5.94,8.9,5,1.27,9.61,3.09,14.89,1.8-1.53-2.54-3.7-4.65-2.4-8,4.3,2.62,8.55,4.67,13.82,2.65-.47-.75-1.32-1.06-1.78-1.66-2.83-3.69-5.8-7.3-8.27-11.23-1.6-2.55-.67-3.68,2.35-3.6a37.06,37.06,0,0,1,14.5,3.25c3.41,1.53,6.85,3,10.27,4.47a25.35,25.35,0,0,0-3.58-3.66c-5.75-5.29-11.59-10.48-17.17-15.95-1.8-1.76-2.9-4.24-4.51-6.67a13.25,13.25,0,0,1,10.61,2.93c4.4,3.51,8.93,7,12.73,11.09,5.41,5.84,10.23,12.23,15.24,18.43,2.16,2.68,4.44,5.13,7.72,6.37-2.64-3.74-5.43-7.3-7.83-11.11-8.7-13.82-17.69-27.3-31.22-37.13-3.09-2.25-5.09-6-7.14-8.5-1,6.28-1.9,13.31-3.3,20.23a21.47,21.47,0,0,1-7.05,12.56c-.59-3.95-.16-8-4-10.25-.38,1.54-.74,3-1.09,4.44C267.23,194.11,267.05,189.38,262.05,187.25Zm-97.6-29.34a10.71,10.71,0,0,0-.66,1.9c-.39,5-.8,10.06-1,15.1,0,.51,1.52,1.65,2.08,1.51,2.51-.62,2.67,1,2.89,2.63.78,5.9,1.44,11.82,2.39,17.69a65.59,65.59,0,0,0,2.12,7.7l.76-.11c0-4.07-.2-8.14.05-12.19a21.09,21.09,0,0,1,4-11.69c.66,4.6,1.3,9,1.93,13.44l.81-.07a12.68,12.68,0,0,0,2.48-9.49,28.28,28.28,0,0,1,.93-11.93,21.63,21.63,0,0,1,8.86-12.55,7.4,7.4,0,0,1,2.43-.57c.17.79.67,1.69.45,2.35-.94,2.86-2,5.71-3.2,8.46-1,2.12-2.23,4.1-3.37,6.14l.73.5c2.79-3.2,5.65-6.35,8.32-9.65a4.93,4.93,0,0,0,.7-2.94c0-4,.08-8-.24-12s-.44-8.48-1.81-12.31c-1.52-4.21-1.16-7.35,1.79-10.57a9.25,9.25,0,0,0,2-9.08L189,130.69c6.23,8.41,7.08,10.41,5.83,14.23l-.67-2.48c-1.13-4.17-2.11-5.08-6.42-4.87a50,50,0,0,0-9.52,1.36,16.25,16.25,0,0,0-5.22,2.84,3.17,3.17,0,0,0-.86,2.48c0,.32,1.37.59,2.13.85s2.08.26,2.57.85c2.41,2.87,5.39,3.76,9,3.56,4-.23,6.14,1.52,7.45,5.41-5.15,2.15-11.55.65-15.71-3.51a30.1,30.1,0,0,0-6-5.14c-3.92-2.22-4.36-3.21-2-7.11,2.25-3.71,4.56-7.39,6.53-11.25.91-1.79,1.07-4,1.56-6l-.9-.29c-2.31,6.26-6.48,11.2-11,15.93-4.78,5-3.8,9.58,2.57,12.51a73.44,73.44,0,0,1,7.56,3.7,28.15,28.15,0,0,1,4.11,3.72l-.32.62c-2.55.1-3.91,1.63-5,3.68a4.69,4.69,0,0,1-4.76,2.69c-2.19-.19-3.31-1.76-4.08-3.65C165.53,160,165.1,159.25,164.45,157.91Zm177.68-25.69c-5.2,2.71-9.91,5.53-14.91,7.68-9.05,3.9-17.87,2.94-26.69-2.4l8.69-3.46-.15-.64c-6.29,1-12.37,1.22-17-4.74,1.85-.53,3.39-.92,4.9-1.44s2.82-1.13,4.23-1.7l-.21-.67c-5.81,1.4-11.47,1.2-16.43-2.37a63.51,63.51,0,0,1-7.24-6.7c-2.81-2.77-5.32-5.87-8.33-8.39-1.91-1.6-4.48-2.41-6.75-3.58l-.46.74c2.1,2.29,4.21,4.57,6.68,7.27l-8.9-2.76c5.52,5.47,11.23,10.39,16.68,15.6s10.53,10.88,13.92,17.74l-.45.45L284,139.13c-1.21,7.92-2.41,15.48,2.39,22.45,6.52,9.48,11.72,13.84,17.28,14.18-5.31-4.91-10.71-9.63-11.47-17.74,5.37,2.16,10.28,4.45,16,4.15l-13-7.92.4-.81,13.84,3a49,49,0,0,0-5.65-5.09c-1.81-1.57-3.44-3.34-5.14-5,4.61,1.78,8.79,4,13.13,5.88a31.58,31.58,0,0,0,14.43,2.6c-5.22-3-11.27-3.78-15-9.2C323.36,145,333.92,141.62,342.13,132.22ZM132.63,234.93c8-8.17,9.09-19.53,13.62-29.33-.46,6.54-1.1,13-1.73,19.49-.5,5.16-1.86,10.09-5.6,13.8-2.51,2.49-5.64,4.36-8.35,6.39,4.94-.12,9.45-1.8,12.51-6.3a27.37,27.37,0,0,0,3.17-5.94c2.25-6.18,4.3-12.44,6.39-18.69,1.65-4.9,4.36-8.74,10-9.92-7.6-11.08-8.52-23.65-9-36.48-13.42,11.39-22.93,26-22,33.07l12.09-13.46c-.79,4.92-2.11,9.37-3.1,13.89C138.19,212.65,137.25,224.2,132.63,234.93ZM158.29,130c4.31-8.2,8.9-15.47,16.85-19.87l1.5,2.5,9.41-7.1c-1.87-3.07-3.9-5.82-5.29-8.86s-2.1-6.27-3.17-9.6c-1.81,4-3.57,7.84-5.34,11.69l-.9-.23c.33-2.74.06-5.74,1.11-8.17a136.53,136.53,0,0,1,9.39-19,60.17,60.17,0,0,0,8.35-21.91c-3.52.09-5.21,1.86-6,6.2-.42,2.35-.93,4.69-3.46,6.49-.23-2.7-.44-5-.65-7.4-3.51,1-4.13,1.88-4.18,5.17s-.15,6.61-.5,9.89A44.66,44.66,0,0,1,174,75.77l.53.31L180,69.63l.54.36c-.74,1.28-1.42,2.59-2.23,3.82-5.16,7.78-10.54,15.43-15.48,23.35C156.57,107.14,155.08,118,158.29,130Zm-44.22,60.21c.65-.7,1.29-1.42,2-2.1,8.89-9.16,18.47-17.28,31.08-20.93a3,3,0,0,0,1.61-1c2.91-4.12,5.75-8.29,8.61-12.44a13,13,0,0,0,2-10.82,5.32,5.32,0,0,1,.15-2.77c1.51-4.61,3.13-9.18,4.85-14.16a14.77,14.77,0,0,0-6.58,9.28c-1.34,5-2.7,6.15-7.87,6.38-.72,0-1.46,0-2.17.1-2.72.42-5.4.93-8.06,3.45h7.77c-9.76,4.77-19.6,9.13-26.42,18.07,3.44-1,6.78-2.31,10.12-3.59,5-1.91,8.31-2.59,10.43-2C129.49,166.16,118.17,175.13,114.07,190.22ZM167,274.33c-3.69,13.39-12.93,22.41-23.21,30.71a14,14,0,0,0,2.9-.59c5.19-1.45,10.32-3.18,15.86-2.09,3.81.76,6.23,2.82,6.85,6.11-2.83.68-6.13-.12-8.68,2.49,14,4.9,25.59,13.67,38.39,20.37C187.53,319,178,305.65,173.86,288.83c-.22,2.23-.43,4.46-.65,6.69C169,289,168.77,281.46,167,274.33Zm106.84-88.54c.48-3.38.81-6.31,1.33-9.21.29-1.65,1.32-2.34,3-1.49,1.26.64,2.54,1.24,4,1.94,2-6.75,1.08-13-1.64-19.4a36.77,36.77,0,0,1-3,5.68,5.07,5.07,0,0,1-3.44,1.94c-1.86,0-3.67-1.44-3.45-3.37.37-3.16-.92-4-3.66-3.67-.13,0-.27-.16-.65-.39a8.66,8.66,0,0,1,.81-2.06c2.08-2.95,4.75-5,8.51-5.28,6.75-.43,8.36-8.06,5.26-11.87-3.62-4.44-7.4-8.77-11.07-13.11a17.44,17.44,0,0,0,.78,2.21c1.83,3.67,3.7,7.32,5.57,11s1.52,5.1-2,7.43c-3,2-6.31,3.7-9,6.11s-5.28,4-9.05,2.71c-1.88-.62-4.58,1.23-5.61,3.42-.88,1.88.7,2.74,1.72,3.78,1.76,1.77,3.55,3.52,5.38,5.22,3.07,2.85,5.56,6,6.17,10.35.29,2.11,1.75,3.32,3.77,2.7,3.1-.94,4.26.68,5.14,3.11A25,25,0,0,0,273.85,185.79ZM121.58,91.46C113.84,93.62,108,98.23,105,106.19a6.35,6.35,0,0,0,1.7,7.44,42.27,42.27,0,0,0,24.68,11.52,9.63,9.63,0,0,0,4.42-.79c1.75-.67,2.45-2,2-4.08-.78-3.74-2.91-6.43-5.62-9a35.87,35.87,0,0,1-7.15-8.63C123.32,99.35,122.76,95.41,121.58,91.46Zm162.54,22c4.13,3.89,9.33,4.59,14.68,5.06a10.75,10.75,0,0,1,4.89,1.51c4.74,3.13,9.77,4.88,15.5,4.31.8-.08,1.62,0,2.43,0l.47.73-5.8,9.26c7.87-.56,13.34-7.11,14.81-17.47.95-6.68-2.48-16.23-6.88-17.3.11,1.81.36,3.65.31,5.48-.1,3.78-1.79,5-5.48,4.26a19.14,19.14,0,0,1-2.27-.8c-3.47-1.25-6.88-2.72-10.44-3.67-2.15-.58-4.51-.37-6.78-.52l.06.42,19.64,11.47c-3.74,2.07-7.52,1.25-11.22-.72-2.91-1.55-5.69-3.4-8.69-4.74a55.1,55.1,0,0,0-7.28-2.17l-.21.71,6,5.43C292.61,116.66,288.48,114.31,284.12,113.47ZM171.55,337.25l-.26.6-15.22-6.22c10.78,7.1,22.35,12.87,31.37,22.71,1.52-5.58,1.42-10.75-1.57-15.27-2.78-4.22-6.26-8-9.44-11.92l5.91.44.16-.64L167.05,318l-.35.6.77,2.66c-7.66.23-14-1.76-18.88-7.54a2.23,2.23,0,0,0-.14.59,4.07,4.07,0,0,0,.2.68c2,6.52,6.6,10.93,12,14.68C164.27,332.23,167.91,334.73,171.55,337.25ZM304.3,292.91c.13-.21.27-.42.41-.63a28.86,28.86,0,0,0-2.87-2c-8.27-4.37-17.17-5.73-26.4-5.48-11.9.33-23.42,2.9-34.9,5.8-3.36.85-6.67,1.63-10.21.7a21.41,21.41,0,0,1-16.15-20.54c0-5-2-6.84-7.8-7.35-1.93-.17-3.16.44-2.78,2.49.69,3.75,1,7.78,2.55,11.15,3.47,7.32,7.89,14.17,16.09,17.14,7.11,2.58,14.31,1.59,21.4-.18,6.62-1.66,13.1-3.84,19.75-5.36,10.59-2.41,21.19-2.79,31.62,1.08C298.07,290.88,301.2,291.86,304.3,292.91Zm-117.43-7.84c.08-.4.19-.58.14-.69-1-2.09-2.09-4.17-3.17-6.24-5.48-10.58-10.63-21.28-12.56-33.23-.61-3.75-.3-7,1.47-9.27l2,11.74a64.14,64.14,0,0,0-1.25-29.26C172,213,169.6,208.31,165,204.75c-1.25,3.21-.56,6.15,0,9.12s1,6,1.53,9c-.77.08-.88.13-.92.09l-2.13-1.94a41.63,41.63,0,0,0-5.08,26.07c2.75-5,4.19-10.84,9.13-15.22C167,252.54,174.47,269.6,186.87,285.07ZM314.33,385.89c-.44-5.87-5.13-12.47-10.65-15.48-5.72-3.12-12-4-18.34-4.55-5.3-.42-10.64-.4-15.9-1.07a14.13,14.13,0,0,1-12.23-9.94c-.25-.71-.57-1.39-.86-2.08-1,4,.2,7.66,1.32,11.3,1.64,5.35,5.23,8.73,10.79,9.44,5.9.75,11.86,1,17.79,1.54C296.48,376,306.43,377.62,314.33,385.89ZM288.77,229.74h4.84c1.62,0,3.32-.17,4,1.9s-.63,3.05-1.9,4-2.86,2-4.3,2.95a3.11,3.11,0,0,0,2,.17c4.6-1.14,9.18-2.33,13.79-3.44,7-1.67,14-3.25,21.22-1.55,3.45.82,6.76,2.26,10.14,3.42a9.63,9.63,0,0,0-3.47-3.61,68.46,68.46,0,0,0-10.59-5.14c-6.53-2.22-13.28-3.8-19.87-5.87-3.68-1.16-4-2.69-1.44-5.55.47-.53.95-1.05,1.6-1.76A29.64,29.64,0,0,0,293,210.93c-1.67-.21-4.32-.74-4.88,0-1.37,1.92,1.06,3.18,2.14,4.51,3,3.65,6.11,7.18,9.32,10.92C295.93,227.68,291.93,226.6,288.77,229.74Zm31.47,151.58c.45-5.49-1.7-10-5-14-4.8-5.76-11.39-8.5-18.29-10.68-4.18-1.33-4.17-1.36-1.76-4.79.07-.1,0-.29,0-.65a19.33,19.33,0,0,0-2.85,0c-5.8.86-11.58,1.93-17.39,2.62a68.43,68.43,0,0,1-10.52.3c-1.36-.05-2.69-1-4.29-1.59,1.56,4.6,4.4,7,9,7.12,5.65.1,11.3,0,16.93.32,12,.71,22,5.52,29.5,15.18Q317.92,378.26,320.24,381.32Zm-49.11-77.67c1.39.33,2.79.59,4.16,1,7.79,2.26,13.54,7.29,18.1,13.76s9.78,12.17,16.59,16.3c4.14,2.52,8.51,4.34,13.58,4.22-8.39-5.46-12.71-14.6-19.62-21.57l4.05.9A51.36,51.36,0,0,0,271.13,303.65Zm-14,10.8.11.47c2.52.28,5.06.42,7.55.85,9.82,1.72,17.54,6.9,23.72,14.58a40,40,0,0,0,15.53,12c4.45,1.91,10.35,2.05,13.41.34-.2-.15-.36-.36-.57-.42-8.82-2.92-15.9-8.32-22-15.22a56.58,56.58,0,0,0-5.45-5.81c-8.26-7.1-18.27-8.16-28.59-7.86A15.53,15.53,0,0,0,257.11,314.45ZM139.64,287.77c-10,3.84-19.11,8.89-26.37,16.69-6.71,7.21-7,16.56-2.56,26.66a47.37,47.37,0,0,1,15-26.34l-5.11,1.64c5.38-7,13.44-7.12,21.11-8.23l-.09-.65-11.29-1.26ZM136.4,131.62l-11.18,2.49-.28-.6,4.89-5.47c-8.8-2.37-17.22-4.53-24.46-10.13a8.74,8.74,0,0,0,.07,1.27A65.15,65.15,0,0,0,115,139.9c2.81,4.23,5.67,4.82,9.79,1.9,3.61-2.55,6.91-5.53,10.31-8.37A9.92,9.92,0,0,0,136.4,131.62ZM311.57,352.74a18.3,18.3,0,0,0-7.82-7.92c-6.42-3.33-13.36-4-20.41-3.66-9.23.51-18.44,1.31-27.66,2-.09,0-.17.24-.3.43,1.65,2.78,4.05,4.77,7.29,4.86a183.19,183.19,0,0,0,19-.16C291.87,347.5,301.79,347.74,311.57,352.74Zm-.16-41.39c-.27-.35-.49-.66-.74-1-.91-1-1.8-2.07-2.76-3-6.9-6.94-14.75-12.09-24.64-13.77-10.25-1.73-20,.23-29.65,3.43-8.5,2.82-16.52,7.32-25.84,7.61a23.76,23.76,0,0,0,5.58,1.14c5.16.23,10.06-1.19,14.73-3.18,15.45-6.6,31-7,46.36-.23C300.24,304.89,305.65,308.27,311.41,311.35Zm-94.66-14.59c-4.09-4.49-8.66-9.33-13-14.35-4.88-5.61-8.54-11.72-7.07-19.69.09-.53-.88-1.43-1.55-1.88-2.24-1.52-4.75-2.68-6.8-4.41-1.76-1.49-3-3.57-4.58-5.45C183.25,270,199.07,290.81,216.75,296.76Zm-104.29,4.35c4.2-4.35,8-8.87,12.39-12.64s9.46-6.77,14.23-10.11l-.07-.42-10.14,2.64c4.89-5.72,9.29-11.48,10.16-19.2a1.51,1.51,0,0,0-.5.2c-7.42,7.6-15,15-22.16,22.89C112.15,289.12,111.36,295.06,112.46,301.11ZM292.54,337.4c-11.17-13.57-26.42-17.2-42.69-17.74.75,2.71,1.86,5.33,2.12,8,.2,2.14.83,2.53,2.76,2.43,6.93-.35,13.9-.47,20.62,1.45C281.11,333.22,286.72,335.4,292.54,337.4Zm74.63-56.56c0,1.61.1,3.22,0,4.82-.49,6.46-1.79,12.71-5,18.47a35.29,35.29,0,0,1-15,14.2c-1.81.95-2.24,1.85-.88,3.72a17,17,0,0,1,2,5.08,36.77,36.77,0,0,1,.78,4.27C363.26,322.41,373.42,294.29,367.17,280.84ZM248.55,275.3c-1.56.5-2.71.84-3.83,1.24-4.45,1.58-8.81,1.75-13-.69-2.71-1.56-3.36-2.92-2.83-6,.17-1,.3-2,.46-3.06-5.25.83-6.53.64-10.9-1.49-3.46,9.3,2.56,19.17,9.08,20.37-.19-1.41-.38-2.86-.62-4.64C237.72,285.45,242.21,284.88,248.55,275.3ZM143,173.49A62.82,62.82,0,0,0,121.3,191a18.32,18.32,0,0,0-3.85,14.29,20.56,20.56,0,0,0,5.38,11.41C122.62,198.56,132.44,185.87,143,173.49Zm85.87-82q-.18-3-.39-6.34c-4.14,2.37-5.73,5.14-5.61,9.54.07,2.89.34,3.07,3,2.17.76-.26,1.53-.48,2.31-.67,6.07-1.45,11.18,1,16.2,3.94.69.39,1.43.71,2.14,1.06l.66-.41c-6.5-8.39-9.34-17.3-4.12-27.43-1.79,1-3.62,1.89-4.61,3.33C235.17,81.41,232.2,86.33,228.87,91.52ZM199.63,52l-.57-.5c-1,1.18-2,2.34-2.92,3.55-4.69,6-9.85,11.75-13,18.84-3.91,8.78-3.16,17.24,2.07,25.27a39,39,0,0,0,3.61,4.23c.61-5.41,1.2-10.68,1.81-16.1-2.18-.26-2.86-2-2.62-4.4a6.35,6.35,0,0,0-.1-1.44,23.6,23.6,0,0,1,3.62-16.6ZM389.48,329.89c-1-3.25-2.35-6.45-2.85-9.77-.53-3.48-.21-7.08-.28-10.62,0-1.85,0-3.71-.23-5.55a9.82,9.82,0,0,0-8.52-8.86c-1.84-.29-2.7.47-2.52,2.19.83,7.77,2,15.48,5.66,22.55C382.85,323.94,385.56,327.53,389.48,329.89Zm-141.72,8.32a19.39,19.39,0,0,0,.64-11.87c-1.1-3.75-3.12-7.22-4.74-10.82,6.19-2.86,11.22-7.64,12.88-12.58-8.76,4.32-17.63,7.38-27.61,5.47C238.19,316.49,245.37,325.82,247.76,338.21ZM317.9,78.84l-.29-.87c-11.13-.34-43.1,10.31-51.63,17.3,5.8.38,11.39.13,16.55-1.88C294.41,88.77,306.12,83.72,317.9,78.84Zm-94,3.62c-3.46-.22-3.6-.4-2.61-3.34,2-5.83,5.75-10.4,10.33-14.32,5.26-4.52,10.64-8.87,16-13.32a16.68,16.68,0,0,0,1.49-1.64l-.46-.45c-.37.23-.75.45-1.1.71-6.46,4.8-12.74,9.87-19.41,14.35S216.46,74.07,214.69,82c0,.18-.27.31-.42.48L212.61,81c-1.5,5.9,2.82,14.88,8.63,17.6A18.13,18.13,0,0,1,223.9,82.46Zm20.64,69.18c.22-2.07.38-4,.61-5.86.58-4.64,1.44-9.06,7.38-9.72a2.44,2.44,0,0,0,1.66-1.44c.38-1.14-2.52-5.23-3.81-5.78-.49,1.69-1,3.4-1.53,5.19a8.49,8.49,0,0,0-2.07-1.1c-2.25-.33-3.6-1.64-4.83-3.5-1.54-2.35-5.11-3.11-8.28-2.11,2.74,1.41,3.6,3.8,4,6.56.45,2.93,1.17,5.82,1.75,8.6L233,140.6a42.42,42.42,0,0,1,3.92,5.2C238.61,148.89,241.39,150.28,244.54,151.64ZM309.1,289.15l.66-.3-.77-7.51,12.76,8.75c-7.55-14.66-23.22-22.22-35.46-20.6C295.34,274.56,302.51,281.51,309.1,289.15ZM248,155.53c2-1.83,3.31-3.74,5.07-4.42s4.41.14,6.37-.52c3.84-1.3,7.49-3.17,11.23-4.81-1.06-4.06-6.53-7.12-11-6.37-2.39.4-4.89.14-7.31.47-1.1.15-2.74.76-3.06,1.58A26,26,0,0,0,248,155.53ZM195.48,290c.21.76.42,1.52.64,2.28,1.65,5.78,5.74,9.78,10,13.65,9.85,9,21.78,15.61,29.73,26.75a3.4,3.4,0,0,0-.2-1.42c-2.5-7-7.19-12.49-12.52-17.51C214.29,305.46,203.16,299.79,195.48,290Zm-73.06-35.92v18.07c8-3.45,18.93-18.65,17.88-25.37C135.18,251.42,129.42,254.33,122.42,254.11ZM368.28,222c-15,3.39-26.26-2.06-35.24-14.54,3,8.37,10.23,12.62,15.46,19.19l-4.89-1.3c5.52,5.76,10.85,11.72,20.09,10.75l-8.1-8.28C360.65,226.25,365.73,226.64,368.28,222ZM146.45,77.49c3.42,4.29,5,8.76,3.27,13.63a33.77,33.77,0,0,1-4.59,8.14,18.38,18.38,0,0,0-3.22,13.47c.66,5.41,3.15,10.08,6.08,14.54a7.92,7.92,0,0,0,1,1,5,5,0,0,0-.48-2.41c-3.62-9.46-4-18.62,2.22-27.31a29.67,29.67,0,0,0,3.45-6.3C157,85.05,154.41,80,146.45,77.49Zm53.26,54.3c.81,5.38,1.6,10.62,2.39,15.83l12.08-4.92c-4.79-2.47-4.77-2.85-.94-6.25.9-.8,1.2-2.28,1.78-3.45l-.61-.38-3.61,1.28c1.3-2.84,2.77-5.28,1.67-8.28C208.75,129,208.75,129,199.71,131.79ZM343.79,234.24l-.44.68c7.93,11.33,7.92,11.33,10.39,25.34.51,2.89,1.08,5.79,3.25,7.69,0-2.39-.09-4.86,0-7.32.14-3.58,1.33-4.24,4.79-3.63a80.37,80.37,0,0,0,8.53.61l.24-.81c-7.45-1.52-12.07-6.31-15.66-12.6a31.19,31.19,0,0,0-5.88-7C347.6,235.9,345.56,235.22,343.79,234.24Zm18.39,6.63-.66.87c2.37,1.83,4.51,4.24,7.18,5.37A72.14,72.14,0,0,0,382,251c7.39,1.51,14.93,2.31,22.29,3.93a25.3,25.3,0,0,1,18.05,14c.66,1.33,1.4,2.61,2.11,3.92-.07-6.22-3-10.88-7.64-14.64-7.54-6.11-16.43-8.22-25.85-8.5a52.22,52.22,0,0,1-22.31-5.37C366.49,243.26,364.35,242,362.18,240.87ZM147.37,273.5c-.58-17.74.19-35.22,8-51.67a9.13,9.13,0,0,0-2,1.87,29.69,29.69,0,0,0-2.34,3.36,60.32,60.32,0,0,0-7.77,34.05C143.5,265.53,144.37,269.86,147.37,273.5ZM259.75,253c-1,1-1.8,2.05-2.77,2.93a2.63,2.63,0,0,0-.43,3.84c2,3.18,4.85,4.58,8.62,3.9,6.35-1.13,12.68-2.74,19.29-.86a4.16,4.16,0,0,0-.19-.77,4.89,4.89,0,0,0-.46-.56c-4.2-4.74-9.63-6.1-15.69-5.73C264.88,256,261.84,255.58,259.75,253Zm-103,12.08c1.82-5.36,3.44-10.14,5.07-14.92l-.77-.29a43.7,43.7,0,0,0-10,18l4.77.3-6.55,17.66c7-6.93,12.64-13.89,15.38-22.83ZM315.4,242.89c7.05,3.55,11.61,8.79,16,14.33a49.77,49.77,0,0,0,7.67,7.95c2.71,2.2,6,3.75,9,5.58l.35-.59c-4.12-5-8.22-10.09-12.35-15.11-2.61-3.17-5.08-6.47-7.95-9.38C324.75,242.33,320.58,241.61,315.4,242.89Zm15.12,97.48c3.66-10,3.58-19.71-2.3-28.85-3.37-5.24-9.47-9.18-13.38-8.81C325.73,313,330.08,325.84,330.52,340.37Zm-13.43-245c-6.47,3.32-13.34,2.31-20.14,2.25-5.62-.05-11.27-.19-16.86.27a18.16,18.16,0,0,0-10.49,4.32c4.89-.25,10.16-.61,15.44-.75,7.56-.2,15.14-.09,22.7-.39C311.71,100.91,315.1,99.24,317.09,95.37Zm10.85,187.84c0-1.43,0-2.23,0-3a11.79,11.79,0,0,0-.24-1.67c-1.88-9.67-8.52-14.78-17.24-17.71-3.25-1.1-6.46-.5-9.57,1.91a31.34,31.34,0,0,1,15.62,10c.28-1,.47-1.67.77-2.72C322.53,273.05,324.44,278.4,327.94,283.21ZM134.29,209.34c-1.1,1.64-2.14,3.33-3.32,4.91-2.47,3.35-4.85,6.82-9.18,8.12-1.71.52-1.71,1.93-1.36,3.36.65,2.59,4.84,5.77,7.53,5.45a3.3,3.3,0,0,0,2.15-1.81A54,54,0,0,0,134.29,209.34Zm.36-99.39a7.75,7.75,0,0,0,.49-1.27c.56-4.07,1-8.15,4.11-11.35.41-.42-.07-2.7-.67-3A62.67,62.67,0,0,0,129.65,91c-1.77-.52-2.48.72-2.32,2.4C127.92,99.61,130.49,104.94,134.65,110ZM263.12,76c-7.75,5.61-9,15.17-2.64,19.24,2.59-5.49,7.87-8.08,12.39-11.6l-8.33,2.27c.75-4,3.72-5.46,6.27-7.31l-.38-.75-9.13,3.51C262,79.4,262.5,77.8,263.12,76ZM242.51,47.13l-.49-.58c-5.6,3.75-11.35,7.3-16.74,11.33a48.53,48.53,0,0,0-7.95,8,13,13,0,0,0-2.67,8.25c2.17-2.52,3.92-5.07,6.17-7.06,3.67-3.24,7.65-6.12,11.51-9.16S240,51.54,242.51,47.13ZM335.7,279a38.19,38.19,0,0,0-9.18-24.79c-3.39-3.94-8.9-5.3-15.74-3.28,1.72.51,3.26.91,4.77,1.44,7.09,2.52,11.36,7.94,14.51,14.42C332,270.86,333.83,275,335.7,279ZM203.8,73.5a36.17,36.17,0,0,1,8.64-13.56c3.34-3.48,6.74-6.9,10.05-10.41a16.43,16.43,0,0,0,4.33-8.27c-4.71,4.35-9.26,8.6-13.85,12.8-3.7,3.39-7.07,7-9.3,11.59C202.45,68.16,202.07,70.66,203.8,73.5ZM184.91,296.41c.28,9.72,7.68,24,13.68,26.69C198.14,312.15,191.69,304.37,184.91,296.41Zm193-6.08,8.29,5.26c2.74-8.46-3.9-25.27-10.63-26.25C382.72,280.71,381.65,284.39,377.87,290.33ZM194.5,86.34c-2.88,5-3.63,10.38-3.42,16,0,.38,1.35,1.16,1.78,1,4.9-1.9,9.74-4,14.12-5.76l-9.64-6.21c-.4,1.5-.85,3.21-1.45,5.45C193.93,93.05,194.55,89.68,194.5,86.34Zm-3.76-6.48c3.68-.78,5.37-2.84,5.57-6.91.35-7.19,2.68-13.29,8.62-17.83a12.91,12.91,0,0,0,4.88-7.54C200.11,56.72,189.69,64.74,190.74,79.86Zm90.07,192.75c-1.23-3.35-4.26-5.41-9-5.13-7.09.41-14.15,1.26-21.56,2,4,2.76,8.21,3.18,12.57,3.17C268.84,272.59,274.85,272.61,280.81,272.61Zm-35.42,9.65h18.34c6.19,0,12.34-.26,18.26-2.4-1.74,0-3.45.21-5.16.33-7.35.53-14.39-1.07-21.41-3A8.05,8.05,0,0,0,245.39,282.26Zm94.92-89.82-.3.79,17.84,11a16.38,16.38,0,0,0-2.49-4c-2.05-2.76-1.84-3.28,1.46-3.89a10.43,10.43,0,0,0,1.49-.5c-7.91-1.73-12.44-8.36-18.57-12.54q3.58,4.69,7.16,9.38l-.53.6Zm3.24,117.72c1.53-1.22,2.6-2.19,3.78-3a6.19,6.19,0,0,0,3-5.87,40.35,40.35,0,0,1,.71-7.89c.53-3.18,1.34-6.32,2.18-10.17C347,291.46,343.38,299.87,343.55,310.16ZM282,337.06c-8.67-5.52-17.85-6.07-28-2.9C263.28,339.1,272.76,336.73,282,337.06Zm-36.74-78.31c-.44,1-.85,2.05-1.33,3-1.6,3.27-3.7,4.34-7.25,3.68-1.71-.32-3.37-.68-4.45,1.26-1.28,2.3-1.31,5.21.22,6.79a11.45,11.45,0,0,0,2.79,1.57,12.26,12.26,0,0,0,.47-2.77c-.18-3.5.48-4,4-4.31a15.09,15.09,0,0,0,6.22-2.11,60.85,60.85,0,0,0,6.59-5.27ZM259.4,71.56c-7.92,1.45-16,8.82-15.17,15.16l4-2c.32,5.27,1,9.9,4.83,13.36C248.06,87.65,250.32,78.9,259.4,71.56ZM422.68,280.71a6.88,6.88,0,0,0,5.39,5.29c3.12.69,6.34.88,9.5,1.42,4.9.84,9.79,1.78,14.38,2.63-1.93-3.79-5.64-5.46-10.25-6C435.41,283.28,428.81,284.27,422.68,280.71Zm-96.52-89.06c-3.36-8.8-14.69-13.35-24.56-10.82Zm-203.5-108,.15.57c8-1.16,15.3-.19,21.42,5.93A34.82,34.82,0,0,0,139,81.28c-3.12-3.53-6.84-3.83-10.88-1.45C126.23,81,124.48,82.36,122.66,83.64ZM249.83,55.19c-1.75,1-3.54,1.87-5.23,2.92-5.41,3.34-10.16,7.38-13.24,13.07-1.86,3.44-1.88,6.61,0,9.37C234.94,70.13,242.2,62.57,249.83,55.19ZM226.05,239.8c1.58,3.83,3,7.47,4.57,11a73.75,73.75,0,0,0,3.92,8c.82,1.39,2.26,2.42,3.42,3.61l.69-.49c-2.47-6.61-4.85-13.25-7.47-19.79C230.34,240.06,228.28,239.57,226.05,239.8ZM299.19,166c6.18,7.73,15.57,8.86,24.1,11.76C317.18,170,307.78,168.82,299.19,166Zm57.53,7.49c-3.73.64-8.06,1.65-12.46,2.06-4.64.45-8.77-1.68-13.26-4.12C338.1,182.2,348.12,182.54,356.72,173.51ZM126.17,147.77l.37.13c4.16-3.1,8.16-6.46,12.53-9.22s4.85-5.7.7-9.45Q133,138.53,126.17,147.77ZM409.65,280.33c-5.48-8-12.46-14.2-21.64-17.65C393.09,271.18,402.16,274.8,409.65,280.33Zm-42.48,47.42c3.07-6.27,6.42-12.18,3.39-19.36a84.9,84.9,0,0,0-5.6,12.16A6.05,6.05,0,0,0,367.17,327.75Zm7.46-92.37,9.05-.66-.07-.76c-2.35-.34-4.72-.59-7.05-1.05s-4.74-1.12-7.71-1.84l1.73,1.93-.24.43-6.67-2.34c3.34,5,10.92,8.43,16.42,7.61Zm-36.06,61.07c-3.63-6.22-3.09-14-7.93-19.8C329.51,286.9,331.68,295.52,338.57,296.45Zm63.4-49.1.14-.91-31.21-4.51C380.35,249.09,391.44,246.62,402,247.35ZM216.73,318.83l19.82,25.9C233.36,332.84,225.73,325.25,216.73,318.83Zm176.18-35.54c.58,5.68,1.15,11.27,1.74,17.08.82-1.19,1.61-2.27,2.33-3.39,4.39-6.89,3.38-10.21-4.13-13.69C392.78,283.25,392.69,283.26,392.91,283.29ZM339.44,123.78c-5.8,5.31-12,9.51-19.95,11.85C329.45,138.15,336.61,133.76,339.44,123.78ZM294.6,92.55c11.87,2.44,20.42,0,22.53-6.5-.69.34-1.26.57-1.78.87-4.36,2.47-8.85,4.18-14,3.11C298.78,89.51,296.57,90.44,294.6,92.55Zm-21-20.25a53,53,0,0,1,23.35-5.46C289.3,61.79,278.85,64.29,273.58,72.3Zm-50.89,42.84c-.91,2-1.83,4.09-2.74,6.14-1.69,3.82-.83,6.25,2.15,7.86,1.29-.87,2.58-1.4,3.35-2.36a3.91,3.91,0,0,0,.77-3.08C225.23,120.75,223.87,117.93,222.69,115.14ZM207.37,73.7c-4.92,8.85.49,22.32,8.5,23.39C209.93,90.46,207.45,82.76,207.37,73.7Zm74.77,172.6-13.2-12a41.53,41.53,0,0,0-2.58,4,39.52,39.52,0,0,0-1.64,4.46l.66.23c3-2.74,4.25-2.84,7.82-.61a17.11,17.11,0,0,0,2.63,1.67C277.84,244.94,279.93,245.55,282.14,246.3Zm73.38-28.84c-3.94-6.55-10.74-8.79-17.64-12C341.27,214,349.15,214.57,355.52,217.46ZM312.78,74.38c-8.35-.74-16.37-.11-23.24,5.3A72.59,72.59,0,0,0,312.78,74.38Zm-.18,172.67c-7.54-7.05-16.53-4.18-25.19-3.66C295.48,246.75,304.4,244.28,312.6,247.05ZM268.16,56.56c-8.77,1-15.83,4.69-20.13,12.76Zm.71,191.83c1.24,3.71,3.32,5.74,6.38,6.05,4.85.51,9.43-1,14-2.37C282.77,249.71,275.38,252.9,268.87,248.39ZM236.1,154.23c1.51,8.32,8.17,13.38,14.54,11Zm109.78-6.76L331.74,159c3.11,2.4,3.55,2.41,6.72-.25a23.46,23.46,0,0,0,2.48-2.3A19.52,19.52,0,0,0,345.88,147.47ZM234.74,46c-9.07,5.05-19,9.24-21.82,20.79C218.27,57.88,227.46,53,234.74,46ZM284,256.13c8.27,6.05,9.56,6.51,13.23,4.74C294.64,255.19,289.86,253.43,284,256.13Zm157.4,26a70,70,0,0,1-7.68-5.25c-2.44-2.13-4.41-4.82-6.78-7.49.13,1.56.17,2.74.33,3.9.33,2.34.75,4.71,3.09,6C434,281.18,437.84,282.42,441.36,282.12Zm-60.09-20.83c.14,8.31,9.58,18.12,17.4,18.59C391.75,274.86,385.65,269.34,381.27,261.29ZM161.74,66.1c-3.58,6.13-.52,12.44-.36,18.68C164.78,78.67,162.85,72.39,161.74,66.1Zm77.74,173.59c1.55,3.28,3.16,6.78,4.85,10.25.89,1.82,1.94,3.56,2.91,5.34C247.75,245.66,244.41,239.49,239.48,239.69Zm-74.09-152c4.9-7,7.5-14.08,5.59-22.33C169.17,72.61,167.35,79.85,165.39,87.69Zm157.16,111c.38-5.54-6.55-11.3-13.51-10.73ZM202,165.84c4.29-.09,7.09-4.09,10.4-11.73C207.26,156.55,204.07,160.54,202,165.84ZM434,289.75c-3.33-1.11-6.78-2-10-3.39s-6.13-3.33-9.25-5.07C417.39,287.49,424.77,290.67,434,289.75ZM269.75,69.68l18.1-10.48C281.36,59,272.16,64.31,269.75,69.68Zm-69.6,1.58c-3.36,5.78-2.36,15.06,1.85,19C201.41,84.14,200.77,77.56,200.15,71.26ZM336,167.69c3.75,6.34,13.66,4.2,16.91-.39A26.9,26.9,0,0,1,336,167.69ZM276.55,79.34c7.24,2.64,8.7-3.7,12.63-7.21C283.87,73.19,280.33,76,276.55,79.34ZM197,247c-2.94,4.8-1.37,9.89,3.63,12.43a9.59,9.59,0,0,0,0-2.9C199.54,253.44,198.32,250.42,197,247Zm205.07,17.84a32.86,32.86,0,0,0,15.83,7.26C413.38,267.46,408.41,265.44,402.08,264.83ZM316.25,290.9c2.67,5.54,6.54,9.14,11.4,12.66C325.69,297.4,321.6,294,316.25,290.9ZM153.62,104.73c-3.67,4.12-4.16,14.11-1.11,17.9C152.86,117,153.25,110.6,153.62,104.73ZM316.19,352.87l4.64-6.47-9.13.83ZM209.41,244c-.25,3.37.14,6.28,3.11,8.36C214.52,247,213.83,245.13,209.41,244Zm9.34,3.8c-1.57,4-1.39,7.55,1.18,11.14C220.7,255,220.77,251.42,218.75,247.77Zm166-8.78c-1.47,2.41-1.15,3.23,1.31,3.32s4.88,0,7.32,0l.11-.68ZM213.65,262.18c-2.43-2.66-4.64-5.1-7-7.72C206.09,259.43,208.17,261.66,213.65,262.18Zm184.56-3.9,15.74,5C409.22,258.89,403.79,258.47,398.21,258.28ZM267.94,62.2l-8.76,5.09C263.8,68.08,265.8,67,267.94,62.2Zm-4.58,119c-.53-2.09-.94-3.65-1.42-5.55l-5.39,4.07Zm1-127.38c-3-2.53-7.43-.59-10.25,2.81Zm67.17,91c5,.23,7.94-1.81,8.79-5.81Zm-185-55.16c.59-4.86-1.25-8.06-5.25-9.58C143,83.19,144.64,86.23,146.52,89.65Zm80.46,167c1.57-3.44.09-6.05-1.28-9.27C224.49,251,224.41,253.81,227,256.62Zm16.78-7c-2.59-2.28-3.34-6-7.75-5.63C238.19,246.47,239.29,249.72,243.76,249.66Zm-30.61-11-.57.44c1.64,2.12,3.27,4.25,4.91,6.38l.73-.57A8,8,0,0,0,213.15,238.7Zm38.92,8.4,1.14,7.86C255.18,251.69,254.75,249.37,252.07,247.1Z" transform="translate(-104.49 -41.26)"/><path d="M239,225.61c-.86-1.4-1.71-2.81-2.67-4.38l4.79-1.67-7.18-5.7.16-.61,5.35.28-3.77-4.88,5.61.29-2.68-5.6c5.14-1.14,10.55-.83,14.08-5.3-.52,5.39-4.84,6.07-9.12,7.12,3.09,3.79,7,4.73,11.66,4.29a5.87,5.87,0,0,1-4.7,3c-1.74.26-3.47.56-5.63.92,2.86,3,6.67,2.67,9.8,3.94l.11.77c-1.26.23-2.52.52-3.79.66-1.57.18-3.86-1-4.38,1.08-.23.93,1.54,2.84,2.83,3.57a63.29,63.29,0,0,0,7.77,3.25c-3.39,2.07-6.3,4.39-4.69,8.9.94,2.62,1.86,3.2,5.69,3.55,0,.91.19,2-.2,2.73a6,6,0,0,1-2.36,2.22c-.26.13-1.33-.86-1.77-1.5a34,34,0,0,0-11.86-10.44,6,6,0,0,0-6.38.18,7.3,7.3,0,0,1-3.83.56c-3.35-.18-6.69-.71-10-.81-3.7-.11-7.42.31-11.12.12-4.78-.24-8,2-10.34,5.8-2.58,4.2-3.16,4.37-8,3.18a4,4,0,0,0-3.07,1.12,13.35,13.35,0,0,0-1.92,3.3c-4.9-3.19-5.52-12.46-1-17.81.94,2,1.76,4,2.76,5.84,1.57,2.91,3.09,3.32,5.85,1.44,3.25-2.23,6.32-4.73,9.61-6.9a40.93,40.93,0,0,1,7.41-4,11.06,11.06,0,0,0,7.49-10c.45-5.41-1.16-10.09-5.95-13.13-2.7-1.73-5.8-2.88-8.37-4.77a36.32,36.32,0,0,1-6.88-6.63c-1.82-2.32-.84-3.66,2-3.84a5.69,5.69,0,0,0,2.86-1.35,16.22,16.22,0,0,0,1.76-2.28c1.61-1.88,2.7-2,4.46-.37,5.9,5.54,12.71,5.61,19.8,3.2,1.75-.59,3.23-2.05,4.74-3.22,1.9-1.49,3-1.57,4.51.33,1.74,2.23,3.35,4.38,6.68,3.85.23,0,1.12,1.46.93,1.92-.71,1.67-1.41,3.6-2.72,4.72-3.76,3.25-7.5,6.74-11.83,9-6.13,3.24-7.85,9.36-7,14.83a7.56,7.56,0,0,0,3.33,4.7c3.42,2,7.22,3.33,10.86,4.93Z" transform="translate(-104.49 -41.26)"/><path d="M262.05,187.25c5,2.13,5.18,6.86,7.66,10.7.35-1.45.71-2.9,1.09-4.44,3.86,2.26,3.43,6.3,4,10.25a21.47,21.47,0,0,0,7.05-12.56c1.4-6.92,2.3-13.95,3.3-20.23,2.05,2.5,4.05,6.25,7.14,8.5,13.53,9.83,22.52,23.31,31.22,37.13,2.4,3.81,5.19,7.37,7.83,11.11-3.28-1.24-5.56-3.69-7.72-6.37-5-6.2-9.83-12.59-15.24-18.43-3.8-4.11-8.33-7.58-12.73-11.09a13.25,13.25,0,0,0-10.61-2.93c1.61,2.43,2.71,4.91,4.51,6.67,5.58,5.47,11.42,10.66,17.17,15.95a25.35,25.35,0,0,1,3.58,3.66c-3.42-1.49-6.86-2.94-10.27-4.47a37.06,37.06,0,0,0-14.5-3.25c-3-.08-3.95,1.05-2.35,3.6,2.47,3.93,5.44,7.54,8.27,11.23.46.6,1.31.91,1.78,1.66-5.27,2-9.52,0-13.82-2.65-1.3,3.31.87,5.42,2.4,8-5.28,1.29-9.91-.53-14.89-1.8,2.12-3.16,4-6,5.94-8.9l-1-.76L266,224.41l-.51-.31q0-9.25,0-18.51C265.48,199.39,265.22,193.24,262.05,187.25Z" transform="translate(-104.49 -41.26)"/><path d="M164.45,157.91c.65,1.34,1.08,2.13,1.41,3,.77,1.89,1.89,3.46,4.08,3.65a4.69,4.69,0,0,0,4.76-2.69c1.07-2.05,2.43-3.58,5-3.68l.32-.62a28.15,28.15,0,0,0-4.11-3.72,73.44,73.44,0,0,0-7.56-3.7c-6.37-2.93-7.35-7.48-2.57-12.51,4.49-4.73,8.66-9.67,11-15.93l.9.29c-.49,2-.65,4.16-1.56,6-2,3.86-4.28,7.54-6.53,11.25-2.34,3.9-1.9,4.89,2,7.11a30.1,30.1,0,0,1,6,5.14c4.16,4.16,10.56,5.66,15.71,3.51-1.31-3.89-3.5-5.64-7.45-5.41-3.64.2-6.62-.69-9-3.56-.49-.59-1.7-.56-2.57-.85s-2.12-.53-2.13-.85a3.17,3.17,0,0,1,.86-2.48,16.25,16.25,0,0,1,5.22-2.84,50,50,0,0,1,9.52-1.36c4.31-.21,5.29.7,6.42,4.87l.67,2.48c1.25-3.82.4-5.82-5.83-14.23l10.92-10.56a9.25,9.25,0,0,1-2,9.08c-2.95,3.22-3.31,6.36-1.79,10.57,1.37,3.83,1.49,8.17,1.81,12.31s.25,8,.24,12a4.93,4.93,0,0,1-.7,2.94c-2.67,3.3-5.53,6.45-8.32,9.65l-.73-.5c1.14-2,2.42-4,3.37-6.14,1.22-2.75,2.26-5.6,3.2-8.46.22-.66-.28-1.56-.45-2.35a7.4,7.4,0,0,0-2.43.57,21.63,21.63,0,0,0-8.86,12.55,28.28,28.28,0,0,0-.93,11.93,12.68,12.68,0,0,1-2.48,9.49l-.81.07c-.63-4.42-1.27-8.84-1.93-13.44a21.09,21.09,0,0,0-4,11.69c-.25,4.05-.05,8.12-.05,12.19l-.76.11a65.59,65.59,0,0,1-2.12-7.7c-.95-5.87-1.61-11.79-2.39-17.69-.22-1.68-.38-3.25-2.89-2.63-.56.14-2.1-1-2.08-1.51.19-5,.6-10.07,1-15.1A10.71,10.71,0,0,1,164.45,157.91Z" transform="translate(-104.49 -41.26)"/><path d="M342.13,132.22c-8.21,9.4-18.77,12.81-30.95,13.39,3.75,5.42,9.8,6.18,15,9.2a31.58,31.58,0,0,1-14.43-2.6c-4.34-1.85-8.52-4.1-13.13-5.88,1.7,1.69,3.33,3.46,5.14,5a49,49,0,0,1,5.65,5.09l-13.84-3-.4.81,13,7.92c-5.69.3-10.6-2-16-4.15.76,8.11,6.16,12.83,11.47,17.74-5.56-.34-10.76-4.7-17.28-14.18-4.8-7-3.6-14.53-2.39-22.45l5.72,3.72.45-.45c-3.39-6.86-8.43-12.5-13.92-17.74s-11.16-10.13-16.68-15.6l8.9,2.76c-2.47-2.7-4.58-5-6.68-7.27l.46-.74c2.27,1.17,4.84,2,6.75,3.58,3,2.52,5.52,5.62,8.33,8.39a63.51,63.51,0,0,0,7.24,6.7c5,3.57,10.62,3.77,16.43,2.37l.21.67c-1.41.57-2.8,1.21-4.23,1.7s-3.05.91-4.9,1.44c4.61,6,10.69,5.73,17,4.74l.15.64-8.69,3.46c8.82,5.34,17.64,6.3,26.69,2.4C332.22,137.75,336.93,134.93,342.13,132.22Z" transform="translate(-104.49 -41.26)"/><path d="M132.63,234.93c4.62-10.73,5.56-22.28,8-33.48,1-4.52,2.31-9,3.1-13.89L131.64,201c-1-7.12,8.54-21.68,22-33.07.52,12.83,1.44,25.4,9,36.48-5.64,1.18-8.35,5-10,9.92-2.09,6.25-4.14,12.51-6.39,18.69a27.37,27.37,0,0,1-3.17,5.94c-3.06,4.5-7.57,6.18-12.51,6.3,2.71-2,5.84-3.9,8.35-6.39,3.74-3.71,5.1-8.64,5.6-13.8.63-6.48,1.27-13,1.73-19.49C141.72,215.4,140.59,226.76,132.63,234.93Z" transform="translate(-104.49 -41.26)"/><path d="M158.29,130c-3.21-12-1.72-22.87,4.52-32.85,4.94-7.92,10.32-15.57,15.48-23.35.81-1.23,1.49-2.54,2.23-3.82l-.54-.36-5.41,6.45-.53-.31a44.66,44.66,0,0,0,1.39-5.93c.35-3.28.45-6.59.5-9.89s.67-4.2,4.18-5.17c.21,2.36.42,4.7.65,7.4,2.53-1.8,3-4.14,3.46-6.49.77-4.34,2.46-6.11,6-6.2a60.17,60.17,0,0,1-8.35,21.91,136.53,136.53,0,0,0-9.39,19c-1.05,2.43-.78,5.43-1.11,8.17l.9.23c1.77-3.85,3.53-7.71,5.34-11.69,1.07,3.33,1.8,6.61,3.17,9.6s3.42,5.79,5.29,8.86l-9.41,7.1-1.5-2.5C167.19,114.54,162.6,121.81,158.29,130Z" transform="translate(-104.49 -41.26)"/><path d="M114.07,190.22c4.1-15.09,15.42-24.06,27.45-32.53-2.12-.56-5.43.12-10.43,2-3.34,1.28-6.68,2.55-10.12,3.59,6.82-8.94,16.66-13.3,26.42-18.07h-7.77c2.66-2.52,5.34-3,8.06-3.45.71-.1,1.45-.07,2.17-.1,5.17-.23,6.53-1.34,7.87-6.38A14.77,14.77,0,0,1,164.3,126c-1.72,5-3.34,9.55-4.85,14.16a5.32,5.32,0,0,0-.15,2.77,13,13,0,0,1-2,10.82c-2.86,4.15-5.7,8.32-8.61,12.44a3,3,0,0,1-1.61,1C134.5,170.84,124.92,179,116,188.12,115.36,188.8,114.72,189.52,114.07,190.22Z" transform="translate(-104.49 -41.26)"/><path d="M167,274.33c1.76,7.13,1.94,14.64,6.2,21.19.22-2.23.43-4.46.65-6.69,4.11,16.82,13.67,30.21,25.26,42.5-12.8-6.7-24.43-15.47-38.39-20.37,2.55-2.61,5.85-1.81,8.68-2.49-.62-3.29-3-5.35-6.85-6.11-5.54-1.09-10.67.64-15.86,2.09a14,14,0,0,1-2.9.59C154.08,296.74,163.32,287.72,167,274.33Z" transform="translate(-104.49 -41.26)"/><path d="M273.85,185.79a25,25,0,0,1-1.11-2.28c-.88-2.43-2-4-5.14-3.11-2,.62-3.48-.59-3.77-2.7-.61-4.34-3.1-7.5-6.17-10.35-1.83-1.7-3.62-3.45-5.38-5.22-1-1-2.6-1.9-1.72-3.78,1-2.19,3.73-4,5.61-3.42,3.77,1.25,6.31-.23,9.05-2.71s6-4.09,9-6.11c3.49-2.33,3.85-3.74,2-7.43s-3.74-7.3-5.57-11a17.44,17.44,0,0,1-.78-2.21c3.67,4.34,7.45,8.67,11.07,13.11,3.1,3.81,1.49,11.44-5.26,11.87-3.76.23-6.43,2.33-8.51,5.28a8.66,8.66,0,0,0-.81,2.06c.38.23.52.4.65.39,2.74-.29,4,.51,3.66,3.67-.22,1.93,1.59,3.35,3.45,3.37a5.07,5.07,0,0,0,3.44-1.94,36.77,36.77,0,0,0,3-5.68c2.72,6.41,3.67,12.65,1.64,19.4-1.43-.7-2.71-1.3-4-1.94-1.68-.85-2.71-.16-3,1.49C274.66,179.48,274.33,182.41,273.85,185.79Z" transform="translate(-104.49 -41.26)"/><path d="M121.58,91.46c1.18,4,1.74,7.89,3.5,11.18a35.87,35.87,0,0,0,7.15,8.63c2.71,2.58,4.84,5.27,5.62,9,.42,2-.28,3.41-2,4.08a9.63,9.63,0,0,1-4.42.79,42.27,42.27,0,0,1-24.68-11.52,6.35,6.35,0,0,1-1.7-7.44C108,98.23,113.84,93.62,121.58,91.46Z" transform="translate(-104.49 -41.26)"/><path d="M284.12,113.47c4.36.84,8.49,3.19,13.72,1.23l-6-5.43.21-.71a55.1,55.1,0,0,1,7.28,2.17c3,1.34,5.78,3.19,8.69,4.74,3.7,2,7.48,2.79,11.22.72l-19.64-11.47-.06-.42c2.27.15,4.63-.06,6.78.52,3.56,1,7,2.42,10.44,3.67a19.14,19.14,0,0,0,2.27.8c3.69.79,5.38-.48,5.48-4.26.05-1.83-.2-3.67-.31-5.48,4.4,1.07,7.83,10.62,6.88,17.3-1.47,10.36-6.94,16.91-14.81,17.47l5.8-9.26-.47-.73c-.81,0-1.63-.06-2.43,0-5.73.57-10.76-1.18-15.5-4.31a10.75,10.75,0,0,0-4.89-1.51C293.45,118.06,288.25,117.36,284.12,113.47Z" transform="translate(-104.49 -41.26)"/><path d="M171.55,337.25c-3.64-2.52-7.28-5-10.91-7.54-5.39-3.75-10-8.16-12-14.68a4.07,4.07,0,0,1-.2-.68,2.23,2.23,0,0,1,.14-.59c4.89,5.78,11.22,7.77,18.88,7.54l-.77-2.66.35-.6L182.5,327l-.16.64-5.91-.44c3.18,4,6.66,7.7,9.44,11.92,3,4.52,3.09,9.69,1.57,15.27-9-9.84-20.59-15.61-31.37-22.71l15.22,6.22Z" transform="translate(-104.49 -41.26)"/><path d="M304.3,292.91c-3.1-1.05-6.23-2-9.29-3.17-10.43-3.87-21-3.49-31.62-1.08-6.65,1.52-13.13,3.7-19.75,5.36-7.09,1.77-14.29,2.76-21.4.18-8.2-3-12.62-9.82-16.09-17.14-1.6-3.37-1.86-7.4-2.55-11.15-.38-2.05.85-2.66,2.78-2.49,5.81.51,7.76,2.31,7.8,7.35a21.41,21.41,0,0,0,16.15,20.54c3.54.93,6.85.15,10.21-.7,11.48-2.9,23-5.47,34.9-5.8,9.23-.25,18.13,1.11,26.4,5.48a28.86,28.86,0,0,1,2.87,2C304.57,292.49,304.43,292.7,304.3,292.91Z" transform="translate(-104.49 -41.26)"/><path d="M186.87,285.07c-12.4-15.47-19.91-32.53-19.28-53.17-4.94,4.38-6.38,10.18-9.13,15.22a41.63,41.63,0,0,1,5.08-26.07l2.13,1.94s.15,0,.92-.09c-.51-3-.94-6-1.53-9s-1.28-5.91,0-9.12c4.57,3.56,7,8.23,8.51,13.37a64.14,64.14,0,0,1,1.25,29.26l-2-11.74c-1.77,2.29-2.08,5.52-1.47,9.27,1.93,12,7.08,22.65,12.56,33.23,1.08,2.07,2.13,4.15,3.17,6.24C187.06,284.49,187,284.67,186.87,285.07Z" transform="translate(-104.49 -41.26)"/><path d="M314.33,385.89c-7.9-8.27-17.85-9.94-28.08-10.84-5.93-.52-11.89-.79-17.79-1.54-5.56-.71-9.15-4.09-10.79-9.44-1.12-3.64-2.27-7.29-1.32-11.3.29.69.61,1.37.86,2.08a14.13,14.13,0,0,0,12.23,9.94c5.26.67,10.6.65,15.9,1.07,6.35.51,12.62,1.43,18.34,4.55C309.2,373.42,313.89,380,314.33,385.89Z" transform="translate(-104.49 -41.26)"/><path d="M288.77,229.74c3.16-3.14,7.16-2.06,10.76-3.34-3.21-3.74-6.34-7.27-9.32-10.92-1.08-1.33-3.51-2.59-2.14-4.51.56-.78,3.21-.25,4.88,0a29.64,29.64,0,0,1,11.76,4.37c-.65.71-1.13,1.23-1.6,1.76-2.52,2.86-2.24,4.39,1.44,5.55,6.59,2.07,13.34,3.65,19.87,5.87A68.46,68.46,0,0,1,335,233.62a9.63,9.63,0,0,1,3.47,3.61c-3.38-1.16-6.69-2.6-10.14-3.42-7.19-1.7-14.24-.12-21.22,1.55-4.61,1.11-9.19,2.3-13.79,3.44a3.11,3.11,0,0,1-2-.17c1.44-1,2.93-1.88,4.3-2.95s2.5-2.11,1.9-4-2.34-1.9-4-1.9Z" transform="translate(-104.49 -41.26)"/><path d="M320.24,381.32q-2.33-3.06-4.66-6.11c-7.46-9.66-17.48-14.47-29.5-15.18-5.63-.33-11.28-.22-16.93-.32-4.61-.09-7.45-2.52-9-7.12,1.6.62,2.93,1.54,4.29,1.59a68.43,68.43,0,0,0,10.52-.3c5.81-.69,11.59-1.76,17.39-2.62a19.33,19.33,0,0,1,2.85,0c0,.36.06.55,0,.65-2.41,3.43-2.42,3.46,1.76,4.79,6.9,2.18,13.49,4.92,18.29,10.68C318.54,371.35,320.69,375.83,320.24,381.32Z" transform="translate(-104.49 -41.26)"/><path d="M271.13,303.65A51.36,51.36,0,0,1,308,318.25l-4.05-.9c6.91,7,11.23,16.11,19.62,21.57-5.07.12-9.44-1.7-13.58-4.22-6.81-4.13-12-9.84-16.59-16.3s-10.31-11.5-18.1-13.76C273.92,304.24,272.52,304,271.13,303.65Z" transform="translate(-104.49 -41.26)"/><path d="M257.11,314.45a15.53,15.53,0,0,1,3.75-1.1c10.32-.3,20.33.76,28.59,7.86A56.58,56.58,0,0,1,294.9,327c6.06,6.9,13.14,12.3,22,15.22.21.06.37.27.57.42-3.06,1.71-9,1.57-13.41-.34a40,40,0,0,1-15.53-12c-6.18-7.68-13.9-12.86-23.72-14.58-2.49-.43-5-.57-7.55-.85Z" transform="translate(-104.49 -41.26)"/><path d="M139.64,287.77l-9.33,8.51,11.29,1.26.09.65c-7.67,1.11-15.73,1.23-21.11,8.23l5.11-1.64a47.37,47.37,0,0,0-15,26.34c-4.48-10.1-4.15-19.45,2.56-26.66C120.53,296.66,129.62,291.61,139.64,287.77Z" transform="translate(-104.49 -41.26)"/><path d="M136.4,131.62a9.92,9.92,0,0,1-1.31,1.81c-3.4,2.84-6.7,5.82-10.31,8.37-4.12,2.92-7,2.33-9.79-1.9a65.15,65.15,0,0,1-9.55-20.72,8.74,8.74,0,0,1-.07-1.27c7.24,5.6,15.66,7.76,24.46,10.13l-4.89,5.47.28.6Z" transform="translate(-104.49 -41.26)"/><path d="M311.57,352.74c-9.78-5-19.7-5.24-29.86-4.46a183.19,183.19,0,0,1-19,.16c-3.24-.09-5.64-2.08-7.29-4.86.13-.19.21-.42.3-.43,9.22-.68,18.43-1.48,27.66-2,7.05-.38,14,.33,20.41,3.66A18.3,18.3,0,0,1,311.57,352.74Z" transform="translate(-104.49 -41.26)"/><path d="M311.41,311.35c-5.76-3.08-11.17-6.46-17-9-15.41-6.76-30.91-6.37-46.36.23-4.67,2-9.57,3.41-14.73,3.18a23.76,23.76,0,0,1-5.58-1.14c9.32-.29,17.34-4.79,25.84-7.61,9.64-3.2,19.4-5.16,29.65-3.43,9.89,1.68,17.74,6.83,24.64,13.77,1,1,1.85,2,2.76,3C310.92,310.69,311.14,311,311.41,311.35Z" transform="translate(-104.49 -41.26)"/><path d="M216.75,296.76c-17.68-5.95-33.5-26.77-33-45.78,1.54,1.88,2.82,4,4.58,5.45,2.05,1.73,4.56,2.89,6.8,4.41.67.45,1.64,1.35,1.55,1.88-1.47,8,2.19,14.08,7.07,19.69C208.09,287.43,212.66,292.27,216.75,296.76Z" transform="translate(-104.49 -41.26)"/><path d="M112.46,301.11c-1.1-6.05-.31-12,3.91-16.64,7.12-7.87,14.74-15.29,22.16-22.89a1.51,1.51,0,0,1,.5-.2c-.87,7.72-5.27,13.48-10.16,19.2L139,277.94l.07.42c-4.77,3.34-9.83,6.35-14.23,10.11S116.66,296.76,112.46,301.11Z" transform="translate(-104.49 -41.26)"/><path d="M292.54,337.4c-5.82-2-11.43-4.18-17.19-5.83-6.72-1.92-13.69-1.8-20.62-1.45-1.93.1-2.56-.29-2.76-2.43-.26-2.7-1.37-5.32-2.12-8C266.12,320.2,281.37,323.83,292.54,337.4Z" transform="translate(-104.49 -41.26)"/><path d="M367.17,280.84c6.25,13.45-3.91,41.57-18.09,50.56a36.77,36.77,0,0,0-.78-4.27,17,17,0,0,0-2-5.08c-1.36-1.87-.93-2.77.88-3.72a35.29,35.29,0,0,0,15-14.2c3.17-5.76,4.47-12,5-18.47C367.27,284.06,367.17,282.45,367.17,280.84Z" transform="translate(-104.49 -41.26)"/><path d="M248.55,275.3c-6.34,9.58-10.83,10.15-21.68,5.76.24,1.78.43,3.23.62,4.64-6.52-1.2-12.54-11.07-9.08-20.37,4.37,2.13,5.65,2.32,10.9,1.49-.16,1.07-.29,2.07-.46,3.06-.53,3.05.12,4.41,2.83,6,4.23,2.44,8.59,2.27,13,.69C245.84,276.14,247,275.8,248.55,275.3Z" transform="translate(-104.49 -41.26)"/><path d="M143,173.49c-10.56,12.38-20.38,25.07-20.17,43.19a20.56,20.56,0,0,1-5.38-11.41A18.32,18.32,0,0,1,121.3,191,62.82,62.82,0,0,1,143,173.49Z" transform="translate(-104.49 -41.26)"/><path d="M228.87,91.52c3.33-5.19,6.3-10.11,9.58-14.81,1-1.44,2.82-2.29,4.61-3.33-5.22,10.13-2.38,19,4.12,27.43l-.66.41c-.71-.35-1.45-.67-2.14-1.06-5-2.91-10.13-5.39-16.2-3.94-.78.19-1.55.41-2.31.67-2.66.9-2.93.72-3-2.17-.12-4.4,1.47-7.17,5.61-9.54Q228.69,88.48,228.87,91.52Z" transform="translate(-104.49 -41.26)"/><path d="M199.63,52l-8.1,12.85a23.6,23.6,0,0,0-3.62,16.6,6.35,6.35,0,0,1,.1,1.44c-.24,2.39.44,4.14,2.62,4.4-.61,5.42-1.2,10.69-1.81,16.1a39,39,0,0,1-3.61-4.23c-5.23-8-6-16.49-2.07-25.27,3.15-7.09,8.31-12.81,13-18.84.94-1.21,2-2.37,2.92-3.55Z" transform="translate(-104.49 -41.26)"/><path d="M389.48,329.89c-3.92-2.36-6.63-5.95-8.74-10.06-3.65-7.07-4.83-14.78-5.66-22.55-.18-1.72.68-2.48,2.52-2.19a9.82,9.82,0,0,1,8.52,8.86c.19,1.84.19,3.7.23,5.55.07,3.54-.25,7.14.28,10.62C387.13,323.44,388.5,326.64,389.48,329.89Z" transform="translate(-104.49 -41.26)"/><path d="M247.76,338.21c-2.39-12.39-9.57-21.72-18.83-29.8,10,1.91,18.85-1.15,27.61-5.47-1.66,4.94-6.69,9.72-12.88,12.58,1.62,3.6,3.64,7.07,4.74,10.82A19.39,19.39,0,0,1,247.76,338.21Z" transform="translate(-104.49 -41.26)"/><path d="M317.9,78.84c-11.78,4.88-23.49,9.93-35.37,14.55-5.16,2-10.75,2.26-16.55,1.88,8.53-7,40.5-17.64,51.63-17.3Z" transform="translate(-104.49 -41.26)"/><path d="M223.9,82.46a18.13,18.13,0,0,0-2.66,16.18c-5.81-2.72-10.13-11.7-8.63-17.6l1.66,1.43c.15-.17.38-.3.42-.48,1.77-7.92,6.86-13.14,13.41-17.54s13-9.55,19.41-14.35c.35-.26.73-.48,1.1-.71l.46.45a16.68,16.68,0,0,1-1.49,1.64c-5.32,4.45-10.7,8.8-16,13.32-4.58,3.92-8.36,8.49-10.33,14.32C220.3,82.06,220.44,82.24,223.9,82.46Z" transform="translate(-104.49 -41.26)"/><path d="M244.54,151.64c-3.15-1.36-5.93-2.75-7.6-5.84a42.42,42.42,0,0,0-3.92-5.2l6.42,1.88c-.58-2.78-1.3-5.67-1.75-8.6-.42-2.76-1.28-5.15-4-6.56,3.17-1,6.74-.24,8.28,2.11,1.23,1.86,2.58,3.17,4.83,3.5a8.49,8.49,0,0,1,2.07,1.1c.54-1.79,1-3.5,1.53-5.19,1.29.55,4.19,4.64,3.81,5.78a2.44,2.44,0,0,1-1.66,1.44c-5.94.66-6.8,5.08-7.38,9.72C244.92,147.67,244.76,149.57,244.54,151.64Z" transform="translate(-104.49 -41.26)"/><path d="M309.1,289.15c-6.59-7.64-13.76-14.59-22.81-19.66,12.24-1.62,27.91,5.94,35.46,20.6L309,281.34l.77,7.51Z" transform="translate(-104.49 -41.26)"/><path d="M248,155.53a26,26,0,0,1,1.29-14.07c.32-.82,2-1.43,3.06-1.58,2.42-.33,4.92-.07,7.31-.47,4.48-.75,9.95,2.31,11,6.37-3.74,1.64-7.39,3.51-11.23,4.81-2,.66-4.47-.22-6.37.52S250,153.7,248,155.53Z" transform="translate(-104.49 -41.26)"/><path d="M195.48,290c7.68,9.76,18.81,15.43,27.64,23.75,5.33,5,10,10.48,12.52,17.51a3.4,3.4,0,0,1,.2,1.42c-8-11.14-19.88-17.78-29.73-26.75-4.25-3.87-8.34-7.87-10-13.65C195.9,291.55,195.69,290.79,195.48,290Z" transform="translate(-104.49 -41.26)"/><path d="M122.42,254.11c7,.22,12.76-2.69,17.88-7.3,1,6.72-9.85,21.92-17.88,25.37Z" transform="translate(-104.49 -41.26)"/><path d="M368.28,222c-2.55,4.69-7.63,4.3-12.68,5.82l8.1,8.28c-9.24,1-14.57-5-20.09-10.75l4.89,1.3C343.27,220,336,215.78,333,207.41,342,219.89,353.24,225.34,368.28,222Z" transform="translate(-104.49 -41.26)"/><path d="M146.45,77.49c8,2.46,10.55,7.56,7.7,14.8a29.67,29.67,0,0,1-3.45,6.3c-6.27,8.69-5.84,17.85-2.22,27.31a5,5,0,0,1,.48,2.41,7.92,7.92,0,0,1-1-1c-2.93-4.46-5.42-9.13-6.08-14.54a18.38,18.38,0,0,1,3.22-13.47,33.77,33.77,0,0,0,4.59-8.14C151.45,86.25,149.87,81.78,146.45,77.49Z" transform="translate(-104.49 -41.26)"/><path d="M199.71,131.79c9-2.76,9-2.76,12.76-6.17,1.1,3-.37,5.44-1.67,8.28l3.61-1.28.61.38c-.58,1.17-.88,2.65-1.78,3.45-3.83,3.4-3.85,3.78.94,6.25l-12.08,4.92C201.31,142.41,200.52,137.17,199.71,131.79Z" transform="translate(-104.49 -41.26)"/><path d="M343.79,234.24c1.77,1,3.81,1.66,5.24,3a31.19,31.19,0,0,1,5.88,7c3.59,6.29,8.21,11.08,15.66,12.6l-.24.81a80.37,80.37,0,0,1-8.53-.61c-3.46-.61-4.65.05-4.79,3.63-.11,2.46,0,4.93,0,7.32-2.17-1.9-2.74-4.8-3.25-7.69-2.47-14-2.46-14-10.39-25.34Z" transform="translate(-104.49 -41.26)"/><path d="M362.18,240.87c2.17,1.17,4.31,2.39,6.5,3.49A52.22,52.22,0,0,0,391,249.73c9.42.28,18.31,2.39,25.85,8.5,4.65,3.76,7.57,8.42,7.64,14.64-.71-1.31-1.45-2.59-2.11-3.92a25.3,25.3,0,0,0-18.05-14c-7.36-1.62-14.9-2.42-22.29-3.93a72.14,72.14,0,0,1-13.33-3.93c-2.67-1.13-4.81-3.54-7.18-5.37Z" transform="translate(-104.49 -41.26)"/><path d="M147.37,273.5c-3-3.64-3.87-8-4.12-12.39A60.32,60.32,0,0,1,151,227.06a29.69,29.69,0,0,1,2.34-3.36,9.13,9.13,0,0,1,2-1.87C147.56,238.28,146.79,255.76,147.37,273.5Z" transform="translate(-104.49 -41.26)"/><path d="M259.75,253c2.09,2.58,5.13,2.95,8.37,2.75,6.06-.37,11.49,1,15.69,5.73a4.89,4.89,0,0,1,.46.56,4.16,4.16,0,0,1,.19.77c-6.61-1.88-12.94-.27-19.29.86-3.77.68-6.58-.72-8.62-3.9a2.63,2.63,0,0,1,.43-3.84C258,255.05,258.79,254,259.75,253Z" transform="translate(-104.49 -41.26)"/><path d="M156.75,265.08l7.9-2.07c-2.74,8.94-8.36,15.9-15.38,22.83l6.55-17.66-4.77-.3a43.7,43.7,0,0,1,10-18l.77.29C160.19,254.94,158.57,259.72,156.75,265.08Z" transform="translate(-104.49 -41.26)"/><path d="M315.4,242.89c5.18-1.28,9.35-.56,12.64,2.78,2.87,2.91,5.34,6.21,7.95,9.38,4.13,5,8.23,10.07,12.35,15.11l-.35.59c-3-1.83-6.25-3.38-9-5.58a49.77,49.77,0,0,1-7.67-7.95C327,251.68,322.45,246.44,315.4,242.89Z" transform="translate(-104.49 -41.26)"/><path d="M330.52,340.37c-.44-14.53-4.79-27.39-15.68-37.66,3.91-.37,10,3.57,13.38,8.81C334.1,320.66,334.18,330.37,330.52,340.37Z" transform="translate(-104.49 -41.26)"/><path d="M317.09,95.37c-2,3.87-5.38,5.54-9.35,5.7-7.56.3-15.14.19-22.7.39-5.28.14-10.55.5-15.44.75a18.16,18.16,0,0,1,10.49-4.32c5.59-.46,11.24-.32,16.86-.27C303.75,97.68,310.62,98.69,317.09,95.37Z" transform="translate(-104.49 -41.26)"/><path d="M327.94,283.21c-3.5-4.81-5.41-10.16-10.67-13.16-.3,1.05-.49,1.71-.77,2.72a31.34,31.34,0,0,0-15.62-10c3.11-2.41,6.32-3,9.57-1.91,8.72,2.93,15.36,8,17.24,17.71a11.79,11.79,0,0,1,.24,1.67C328,281,327.94,281.78,327.94,283.21Z" transform="translate(-104.49 -41.26)"/><path d="M134.29,209.34a54,54,0,0,1-4.18,20,3.3,3.3,0,0,1-2.15,1.81c-2.69.32-6.88-2.86-7.53-5.45-.35-1.43-.35-2.84,1.36-3.36,4.33-1.3,6.71-4.77,9.18-8.12C132.15,212.67,133.19,211,134.29,209.34Z" transform="translate(-104.49 -41.26)"/><path d="M134.65,110c-4.16-5-6.73-10.34-7.32-16.55-.16-1.68.55-2.92,2.32-2.4a62.67,62.67,0,0,1,8.93,3.35c.6.28,1.08,2.56.67,3-3.16,3.2-3.55,7.28-4.11,11.35A7.75,7.75,0,0,1,134.65,110Z" transform="translate(-104.49 -41.26)"/><path d="M263.12,76c-.62,1.84-1.16,3.44-1.82,5.36l9.13-3.51.38.75c-2.55,1.85-5.52,3.34-6.27,7.31l8.33-2.27c-4.52,3.52-9.8,6.11-12.39,11.6C254.12,91.13,255.37,81.57,263.12,76Z" transform="translate(-104.49 -41.26)"/><path d="M242.51,47.13c-2.51,4.41-6.24,7.69-10.17,10.78s-7.84,5.92-11.51,9.16c-2.25,2-4,4.54-6.17,7.06a13,13,0,0,1,2.67-8.25,48.53,48.53,0,0,1,7.95-8c5.39-4,11.14-7.58,16.74-11.33Z" transform="translate(-104.49 -41.26)"/><path d="M335.7,279c-1.87-4.07-3.69-8.17-5.64-12.21-3.15-6.48-7.42-11.9-14.51-14.42-1.51-.53-3.05-.93-4.77-1.44,6.84-2,12.35-.66,15.74,3.28A38.19,38.19,0,0,1,335.7,279Z" transform="translate(-104.49 -41.26)"/><path d="M203.8,73.5c-1.73-2.84-1.35-5.34-.13-7.85,2.23-4.56,5.6-8.2,9.3-11.59,4.59-4.2,9.14-8.45,13.85-12.8a16.43,16.43,0,0,1-4.33,8.27c-3.31,3.51-6.71,6.93-10.05,10.41A36.17,36.17,0,0,0,203.8,73.5Z" transform="translate(-104.49 -41.26)"/><path d="M184.91,296.41c6.78,8,13.23,15.74,13.68,26.69C192.59,320.45,185.19,306.13,184.91,296.41Z" transform="translate(-104.49 -41.26)"/><path d="M377.87,290.33c3.78-5.94,4.85-9.62-2.34-21,6.73,1,13.37,17.79,10.63,26.25Z" transform="translate(-104.49 -41.26)"/><path d="M194.5,86.34c.05,3.34-.57,6.71,1.39,10.44.6-2.24,1.05-4,1.45-5.45L207,97.54c-4.38,1.81-9.22,3.86-14.12,5.76-.43.16-1.77-.62-1.78-1C190.87,96.72,191.62,91.32,194.5,86.34Z" transform="translate(-104.49 -41.26)"/><path d="M190.74,79.86c-1.05-15.12,9.37-23.14,19.07-32.28a12.91,12.91,0,0,1-4.88,7.54C199,59.66,196.66,65.76,196.31,73,196.11,77,194.42,79.08,190.74,79.86Z" transform="translate(-104.49 -41.26)"/><path d="M280.81,272.61c-6,0-12,0-18,0-4.36,0-8.6-.41-12.57-3.17,7.41-.7,14.47-1.55,21.56-2C276.55,267.2,279.58,269.26,280.81,272.61Z" transform="translate(-104.49 -41.26)"/><path d="M245.39,282.26a8.05,8.05,0,0,1,10-5.06c7,1.92,14.06,3.52,21.41,3,1.71-.12,3.42-.34,5.16-.33-5.92,2.14-12.07,2.4-18.26,2.4Z" transform="translate(-104.49 -41.26)"/><path d="M340.31,192.44l6.06.81.53-.6q-3.58-4.68-7.16-9.38c6.13,4.18,10.66,10.81,18.57,12.54a10.43,10.43,0,0,1-1.49.5c-3.3.61-3.51,1.13-1.46,3.89a16.38,16.38,0,0,1,2.49,4l-17.84-11Z" transform="translate(-104.49 -41.26)"/><path d="M343.55,310.16c-.17-10.29,3.41-18.7,9.64-26.92-.84,3.85-1.65,7-2.18,10.17a40.35,40.35,0,0,0-.71,7.89,6.19,6.19,0,0,1-3,5.87C346.15,308,345.08,308.94,343.55,310.16Z" transform="translate(-104.49 -41.26)"/><path d="M282,337.06c-9.2-.33-18.68,2-28-2.9C264.11,331,273.29,331.54,282,337.06Z" transform="translate(-104.49 -41.26)"/><path d="M245.22,258.75l7.27,1.88a60.85,60.85,0,0,1-6.59,5.27,15.09,15.09,0,0,1-6.22,2.11c-3.53.34-4.19.81-4,4.31a12.26,12.26,0,0,1-.47,2.77,11.45,11.45,0,0,1-2.79-1.57c-1.53-1.58-1.5-4.49-.22-6.79,1.08-1.94,2.74-1.58,4.45-1.26,3.55.66,5.65-.41,7.25-3.68C244.37,260.8,244.78,259.77,245.22,258.75Z" transform="translate(-104.49 -41.26)"/><path d="M259.4,71.56c-9.08,7.34-11.34,16.09-6.35,26.54-3.86-3.46-4.51-8.09-4.83-13.36l-4,2C243.36,80.38,251.48,73,259.4,71.56Z" transform="translate(-104.49 -41.26)"/><path d="M422.68,280.71c6.13,3.56,12.73,2.57,19,3.33,4.61.55,8.32,2.22,10.25,6-4.59-.85-9.48-1.79-14.38-2.63-3.16-.54-6.38-.73-9.5-1.42A6.88,6.88,0,0,1,422.68,280.71Z" transform="translate(-104.49 -41.26)"/><path d="M326.16,191.65,301.6,180.83C311.47,178.3,322.8,182.85,326.16,191.65Z" transform="translate(-104.49 -41.26)"/><path d="M122.66,83.64c1.82-1.28,3.57-2.68,5.48-3.81,4-2.38,7.76-2.08,10.88,1.45a34.82,34.82,0,0,1,5.21,8.86c-6.12-6.12-13.46-7.09-21.42-5.93Z" transform="translate(-104.49 -41.26)"/><path d="M249.83,55.19c-7.63,7.38-14.89,14.94-18.51,25.36-1.84-2.76-1.82-5.93,0-9.37,3.08-5.69,7.83-9.73,13.24-13.07C246.29,57.06,248.08,56.16,249.83,55.19Z" transform="translate(-104.49 -41.26)"/><path d="M226.05,239.8c2.23-.23,4.29.26,5.13,2.36,2.62,6.54,5,13.18,7.47,19.79l-.69.49c-1.16-1.19-2.6-2.22-3.42-3.61a73.75,73.75,0,0,1-3.92-8C229.05,247.27,227.63,243.63,226.05,239.8Z" transform="translate(-104.49 -41.26)"/><path d="M299.19,166c8.59,2.8,18,3.95,24.1,11.76C314.76,174.88,305.37,173.75,299.19,166Z" transform="translate(-104.49 -41.26)"/><path d="M356.72,173.51c-8.6,9-18.62,8.69-25.72-2.06,4.49,2.44,8.62,4.57,13.26,4.12C348.66,175.16,353,174.15,356.72,173.51Z" transform="translate(-104.49 -41.26)"/><path d="M126.17,147.77q6.79-9.26,13.6-18.54c4.15,3.75,3.65,6.7-.7,9.45s-8.37,6.12-12.53,9.22Z" transform="translate(-104.49 -41.26)"/><path d="M409.65,280.33c-7.49-5.53-16.56-9.15-21.64-17.65C397.19,266.13,404.17,272.3,409.65,280.33Z" transform="translate(-104.49 -41.26)"/><path d="M367.17,327.75a6.05,6.05,0,0,1-2.21-7.2,84.9,84.9,0,0,1,5.6-12.16C373.59,315.57,370.24,321.48,367.17,327.75Z" transform="translate(-104.49 -41.26)"/><path d="M374.63,235.38l5.46,3.32c-5.5.82-13.08-2.58-16.42-7.61l6.67,2.34.24-.43-1.73-1.93c3,.72,5.32,1.38,7.71,1.84s4.7.71,7.05,1.05l.07.76Z" transform="translate(-104.49 -41.26)"/><path d="M338.57,296.45c-6.89-.93-9.06-9.55-7.93-19.8C335.48,282.48,334.94,290.23,338.57,296.45Z" transform="translate(-104.49 -41.26)"/><path d="M402,247.35c-10.53-.73-21.62,1.74-31.07-5.42l31.21,4.51Z" transform="translate(-104.49 -41.26)"/><path d="M216.73,318.83c9,6.42,16.63,14,19.82,25.9Z" transform="translate(-104.49 -41.26)"/><path d="M392.91,283.29c-.22,0-.13,0-.06,0,7.51,3.48,8.52,6.8,4.13,13.69-.72,1.12-1.51,2.2-2.33,3.39C394.06,294.56,393.49,289,392.91,283.29Z" transform="translate(-104.49 -41.26)"/><path d="M339.44,123.78c-2.83,10-10,14.37-19.95,11.85C327.47,133.29,333.64,129.09,339.44,123.78Z" transform="translate(-104.49 -41.26)"/><path d="M294.6,92.55c2-2.11,4.18-3,6.71-2.52,5.19,1.07,9.68-.64,14-3.11.52-.3,1.09-.53,1.78-.87C315,92.55,306.47,95,294.6,92.55Z" transform="translate(-104.49 -41.26)"/><path d="M273.58,72.3c5.27-8,15.72-10.51,23.35-5.46A53,53,0,0,0,273.58,72.3Z" transform="translate(-104.49 -41.26)"/><path d="M222.69,115.14c1.18,2.79,2.54,5.61,3.53,8.56a3.91,3.91,0,0,1-.77,3.08c-.77,1-2.06,1.49-3.35,2.36-3-1.61-3.84-4-2.15-7.86C220.86,119.23,221.78,117.19,222.69,115.14Z" transform="translate(-104.49 -41.26)"/><path d="M207.37,73.7c.08,9.06,2.56,16.76,8.5,23.39C207.86,96,202.45,82.55,207.37,73.7Z" transform="translate(-104.49 -41.26)"/><path d="M282.14,246.3c-2.21-.75-4.3-1.36-6.31-2.17a17.11,17.11,0,0,1-2.63-1.67c-3.57-2.23-4.81-2.13-7.82.61l-.66-.23a39.52,39.52,0,0,1,1.64-4.46,41.53,41.53,0,0,1,2.58-4Z" transform="translate(-104.49 -41.26)"/><path d="M355.52,217.46c-6.37-2.89-14.25-3.49-17.64-12C344.78,208.67,351.58,210.91,355.52,217.46Z" transform="translate(-104.49 -41.26)"/><path d="M312.78,74.38a72.59,72.59,0,0,1-23.24,5.3C296.41,74.27,304.43,73.64,312.78,74.38Z" transform="translate(-104.49 -41.26)"/><path d="M312.6,247.05c-8.2-2.77-17.12-.3-25.19-3.66C296.07,242.87,305.06,240,312.6,247.05Z" transform="translate(-104.49 -41.26)"/><path d="M268.16,56.56,248,69.32C252.33,61.25,259.39,57.56,268.16,56.56Z" transform="translate(-104.49 -41.26)"/><path d="M268.87,248.39c6.51,4.51,13.9,1.32,20.41,3.68-4.6,1.41-9.18,2.88-14,2.37C272.19,254.13,270.11,252.1,268.87,248.39Z" transform="translate(-104.49 -41.26)"/><path d="M236.1,154.23l14.54,11C244.27,167.61,237.61,162.55,236.1,154.23Z" transform="translate(-104.49 -41.26)"/><path d="M345.88,147.47a19.52,19.52,0,0,1-4.94,8.94,23.46,23.46,0,0,1-2.48,2.3c-3.17,2.66-3.61,2.65-6.72.25Z" transform="translate(-104.49 -41.26)"/><path d="M234.74,46c-7.28,6.92-16.47,11.84-21.82,20.79C215.79,55.28,225.67,51.09,234.74,46Z" transform="translate(-104.49 -41.26)"/><path d="M284,256.13c5.9-2.7,10.68-.94,13.23,4.74C293.52,262.64,292.23,262.18,284,256.13Z" transform="translate(-104.49 -41.26)"/><path d="M441.36,282.12c-3.52.3-7.38-.94-11-2.89-2.34-1.24-2.76-3.61-3.09-6-.16-1.16-.2-2.34-.33-3.9,2.37,2.67,4.34,5.36,6.78,7.49A70,70,0,0,0,441.36,282.12Z" transform="translate(-104.49 -41.26)"/><path d="M381.27,261.29c4.38,8,10.48,13.57,17.4,18.59C390.85,279.41,381.41,269.6,381.27,261.29Z" transform="translate(-104.49 -41.26)"/><path d="M161.74,66.1c1.11,6.29,3,12.57-.36,18.68C161.22,78.54,158.16,72.23,161.74,66.1Z" transform="translate(-104.49 -41.26)"/><path d="M239.48,239.69c4.93-.2,8.27,6,7.76,15.59-1-1.78-2-3.52-2.91-5.34C242.64,246.47,241,243,239.48,239.69Z" transform="translate(-104.49 -41.26)"/><path d="M165.39,87.69c2-7.84,3.78-15.08,5.59-22.33C172.89,73.61,170.29,80.7,165.39,87.69Z" transform="translate(-104.49 -41.26)"/><path d="M322.55,198.64,309,187.91C316,187.34,322.93,193.1,322.55,198.64Z" transform="translate(-104.49 -41.26)"/><path d="M202,165.84c2.06-5.3,5.25-9.29,10.4-11.73C209.1,161.75,206.3,165.75,202,165.84Z" transform="translate(-104.49 -41.26)"/><path d="M434,289.75c-9.19.92-16.57-2.26-19.23-8.46,3.12,1.74,6.07,3.67,9.25,5.07S430.63,288.64,434,289.75Z" transform="translate(-104.49 -41.26)"/><path d="M269.75,69.68c2.41-5.37,11.61-10.7,18.1-10.48Z" transform="translate(-104.49 -41.26)"/><path d="M200.15,71.26c.62,6.3,1.26,12.88,1.85,19C197.79,86.32,196.79,77,200.15,71.26Z" transform="translate(-104.49 -41.26)"/><path d="M336,167.69a26.9,26.9,0,0,0,16.91-.39C349.63,171.89,339.72,174,336,167.69Z" transform="translate(-104.49 -41.26)"/><path d="M276.55,79.34c3.78-3.35,7.32-6.15,12.63-7.21C285.25,75.64,283.79,82,276.55,79.34Z" transform="translate(-104.49 -41.26)"/><path d="M197,247c1.31,3.43,2.53,6.45,3.58,9.53a9.59,9.59,0,0,1,0,2.9C195.64,256.88,194.07,251.79,197,247Z" transform="translate(-104.49 -41.26)"/><path d="M402.08,264.83c6.33.61,11.3,2.63,15.83,7.26A32.86,32.86,0,0,1,402.08,264.83Z" transform="translate(-104.49 -41.26)"/><path d="M316.25,290.9c5.35,3.11,9.44,6.5,11.4,12.66C322.79,300,318.92,296.44,316.25,290.9Z" transform="translate(-104.49 -41.26)"/><path d="M153.62,104.73c-.37,5.87-.76,12.22-1.11,17.9C149.46,118.84,150,108.85,153.62,104.73Z" transform="translate(-104.49 -41.26)"/><path d="M316.19,352.87l-4.49-5.64,9.13-.83Z" transform="translate(-104.49 -41.26)"/><path d="M209.41,244c4.42,1.16,5.11,3.06,3.11,8.36C209.55,250.25,209.16,247.34,209.41,244Z" transform="translate(-104.49 -41.26)"/><path d="M218.75,247.77c2,3.65,1.95,7.18,1.18,11.14C217.36,255.32,217.18,251.8,218.75,247.77Z" transform="translate(-104.49 -41.26)"/><path d="M384.71,239l8.74,2.66-.11.68c-2.44,0-4.89.08-7.32,0S383.24,241.4,384.71,239Z" transform="translate(-104.49 -41.26)"/><path d="M213.65,262.18c-5.48-.52-7.56-2.75-7-7.72C209,257.08,211.22,259.52,213.65,262.18Z" transform="translate(-104.49 -41.26)"/><path d="M398.21,258.28c5.58.19,11,.61,15.74,5Z" transform="translate(-104.49 -41.26)"/><path d="M267.94,62.2c-2.14,4.75-4.14,5.88-8.76,5.09Z" transform="translate(-104.49 -41.26)"/><path d="M263.36,181.18l-6.81-1.48,5.39-4.07C262.42,177.53,262.83,179.09,263.36,181.18Z" transform="translate(-104.49 -41.26)"/><path d="M264.36,53.8l-10.25,2.81C256.93,53.21,261.35,51.27,264.36,53.8Z" transform="translate(-104.49 -41.26)"/><path d="M331.53,144.81l8.79-5.81C339.47,143,336.56,145,331.53,144.81Z" transform="translate(-104.49 -41.26)"/><path d="M146.52,89.65c-1.88-3.42-3.54-6.46-5.25-9.58C145.27,81.59,147.11,84.79,146.52,89.65Z" transform="translate(-104.49 -41.26)"/><path d="M227,256.62c-2.57-2.81-2.49-5.67-1.28-9.27C227.07,250.57,228.55,253.18,227,256.62Z" transform="translate(-104.49 -41.26)"/><path d="M243.76,249.66c-4.47.06-5.57-3.19-7.75-5.63C240.42,243.61,241.17,247.38,243.76,249.66Z" transform="translate(-104.49 -41.26)"/><path d="M213.15,238.7a8,8,0,0,1,5.07,6.25l-.73.57c-1.64-2.13-3.27-4.26-4.91-6.38Z" transform="translate(-104.49 -41.26)"/><path d="M252.07,247.1c2.68,2.27,3.11,4.59,1.14,7.86Z" transform="translate(-104.49 -41.26)"/></svg>